<svg width="95" height="71" viewBox="0 0 95 71" fill="none" xmlns="http://www.w3.org/2000/svg">
<path d="M17.2 70.7113L0 60.7433L0 40.8072L0.0241463 40.7932L17.2 50.7473V70.7113Z" fill="url(#paint0_linear_92_2281)"/>
<path d="M17.2 70.7043V50.6217L34.4 40.7952V60.744L17.2 70.7043Z" fill="url(#paint1_linear_92_2281)"/>
<path d="M34.3937 40.8034L17.2009 50.7673L0.00732422 40.8029L17.2001 30.8391L34.3937 40.8034Z" fill="url(#paint2_linear_92_2281)"/>
<path opacity="0.547768" d="M85.6257 10.9075L17.2087 50.832L0.144287 40.7615L70.707 0.000244141L85.6257 10.9075Z" fill="url(#paint3_linear_92_2281)"/>
<path opacity="0.547768" d="M94.9626 25.1519L17.1948 70.7422V50.7683L77.9392 15.4902L94.9626 25.1519Z" fill="url(#paint4_linear_92_2281)"/>
<defs>
<linearGradient id="paint0_linear_92_2281" x1="14.5269" y1="36.4812" x2="-3.7511" y2="39.7473" gradientUnits="userSpaceOnUse">
<stop stop-color="#452C90"/>
<stop offset="1" stop-color="#6741D9"/>
</linearGradient>
<linearGradient id="paint1_linear_92_2281" x1="14.4618" y1="65.8895" x2="32.7909" y2="69.2455" gradientUnits="userSpaceOnUse">
<stop stop-color="#6741D9"/>
<stop offset="1" stop-color="white"/>
</linearGradient>
<linearGradient id="paint2_linear_92_2281" x1="0.00732422" y1="50.7673" x2="34.3937" y2="50.7673" gradientUnits="userSpaceOnUse">
<stop stop-color="#6741D9"/>
<stop offset="1" stop-color="white"/>
</linearGradient>
<linearGradient id="paint3_linear_92_2281" x1="41.1869" y1="65.9643" x2="76.7961" y2="8.3082" gradientUnits="userSpaceOnUse">
<stop stop-color="#6741D9" stop-opacity="0.7"/>
<stop offset="1" stop-color="white" stop-opacity="0.01"/>
</linearGradient>
<linearGradient id="paint4_linear_92_2281" x1="37.8068" y1="69.5914" x2="95.3958" y2="38.7449" gradientUnits="userSpaceOnUse">
<stop stop-color="#6741D9" stop-opacity="0.7"/>
<stop offset="1" stop-color="white" stop-opacity="0.01"/>
</linearGradient>
</defs>
</svg>
