<svg width="49" height="9" viewBox="0 0 49 9" fill="none" xmlns="http://www.w3.org/2000/svg">
<path d="M2.82843 2.82843C2.76926 2.88759 2.70834 2.9448 2.64575 3L4 3C4 3.52529 3.89654 4.04543 3.69552 4.53073C3.4945 5.01604 3.19986 5.45699 2.82843 5.82843C2.45699 6.19986 2.01604 6.4945 1.53073 6.69552C1.04543 6.89654 0.525287 7 0 7V0.999999C0 0.447715 0.447715 0 1 0H4C4 0.525288 3.89654 1.04543 3.69552 1.53073C3.4945 2.01604 3.19986 2.45699 2.82843 2.82843Z" fill="white"/>
<path d="M8 1C8 0.447716 7.55228 0 7 0H4C4 0.525288 4.10346 1.04543 4.30448 1.53073C4.5055 2.01604 4.80014 2.45699 5.17157 2.82843C5.23073 2.88759 5.29166 2.9448 5.35425 3L4 3C4 3.52529 4.10346 4.04543 4.30448 4.53073C4.5055 5.01604 4.80014 5.45699 5.17157 5.82843C5.54301 6.19986 5.98396 6.4945 6.46927 6.69552C6.95457 6.89654 7.47471 7 8 7L8 1Z" fill="white"/>
<path d="M12.0571 7L14.395 0.452148H15.854L18.1831 7H16.9043L16.3813 5.43555H13.8413L13.3052 7H12.0571ZM14.1665 4.48193H16.0649L15.7573 3.55908C15.6606 3.25732 15.561 2.94238 15.4585 2.61426C15.3589 2.28613 15.2476 1.91553 15.1245 1.50244C15.0015 1.91553 14.8887 2.28613 14.7861 2.61426C14.6836 2.94238 14.5825 3.25732 14.4829 3.55908L14.1665 4.48193Z" fill="white"/>
<path d="M18.5524 7V2.35938H19.6598V7H18.5524ZM19.1061 1.66943C18.9157 1.66943 18.7575 1.60938 18.6315 1.48926C18.5055 1.36621 18.4426 1.21533 18.4426 1.03662C18.4426 0.85791 18.5055 0.708496 18.6315 0.588379C18.7575 0.468262 18.9157 0.408203 19.1061 0.408203C19.2936 0.408203 19.4504 0.468262 19.5763 0.588379C19.7023 0.708496 19.7653 0.85791 19.7653 1.03662C19.7653 1.21533 19.7023 1.36621 19.5763 1.48926C19.4504 1.60938 19.2936 1.66943 19.1061 1.66943Z" fill="white"/>
<path d="M20.4642 7V2.35938H21.5321V3.12842H21.5453C21.6302 2.86475 21.7635 2.66406 21.9452 2.52637C22.1297 2.38574 22.3714 2.31543 22.6703 2.31543C22.7464 2.31543 22.8138 2.31836 22.8724 2.32422C22.9339 2.32715 22.9867 2.33008 23.0306 2.33301V3.31738C22.9896 3.31152 22.9193 3.3042 22.8197 3.29541C22.7201 3.28662 22.6161 3.28223 22.5077 3.28223C22.244 3.28223 22.0213 3.37305 21.8397 3.55469C21.661 3.73633 21.5716 4.00879 21.5716 4.37207V7H20.4642Z" fill="white"/>
<path d="M23.5186 7V0.452148H26.0498C26.7412 0.452148 27.2759 0.607422 27.6538 0.917969C28.0347 1.22852 28.2251 1.64014 28.2251 2.15283C28.2251 2.53076 28.1226 2.83984 27.9175 3.08008C27.7154 3.32031 27.4385 3.48877 27.087 3.58545V3.59424C27.4766 3.64111 27.8047 3.79785 28.0713 4.06445C28.3409 4.32812 28.4756 4.69287 28.4756 5.15869C28.4756 5.70947 28.2793 6.15479 27.8868 6.49463C27.4971 6.83154 26.9229 7 26.1641 7H23.5186ZM24.6612 6.05518H26.0411C26.4366 6.05518 26.7427 5.97461 26.9595 5.81348C27.1763 5.65234 27.2847 5.4209 27.2847 5.11914C27.2847 4.81445 27.1778 4.57422 26.9639 4.39844C26.753 4.22266 26.4541 4.13477 26.0674 4.13477H24.6612V6.05518ZM24.6612 3.2251H25.9971C26.3311 3.2251 26.5918 3.14307 26.7793 2.979C26.9698 2.81201 27.065 2.58936 27.065 2.31104C27.065 2.02979 26.9698 1.80713 26.7793 1.64307C26.5918 1.479 26.3311 1.39697 25.9971 1.39697H24.6612V3.2251Z" fill="white"/>
<path d="M30.4841 7.07471C30.0212 7.07471 29.6374 6.95898 29.3327 6.72754C29.031 6.49316 28.8801 6.14453 28.8801 5.68164C28.8801 5.33008 28.9651 5.05908 29.135 4.86865C29.3078 4.67529 29.532 4.53467 29.8073 4.44678C30.0857 4.35889 30.3845 4.29883 30.7038 4.2666C31.1345 4.2168 31.4348 4.17285 31.6047 4.13477C31.7746 4.09668 31.8596 3.99854 31.8596 3.84033V3.80518C31.8596 3.60596 31.7834 3.44336 31.6311 3.31738C31.4817 3.19141 31.2751 3.12842 31.0114 3.12842C30.7419 3.12842 30.5222 3.19141 30.3523 3.31738C30.1853 3.44336 30.0945 3.60449 30.0798 3.80078H29.0119C29.0383 3.34082 29.2302 2.97021 29.5876 2.68896C29.945 2.40771 30.427 2.26709 31.0334 2.26709C31.6369 2.26709 32.1086 2.40771 32.4485 2.68896C32.7883 2.97021 32.9582 3.35254 32.9582 3.83594V7H31.8684V6.34521H31.8508C31.7395 6.55029 31.5783 6.72314 31.3674 6.86377C31.1565 7.00439 30.862 7.07471 30.4841 7.07471ZM30.7566 6.25293C31.1198 6.25293 31.3952 6.15918 31.5827 5.97168C31.7702 5.78125 31.864 5.55127 31.864 5.28174V4.78076C31.7966 4.82471 31.6662 4.86572 31.4729 4.90381C31.2795 4.93896 31.0686 4.97412 30.8401 5.00928C30.6028 5.04443 30.3962 5.11182 30.2204 5.21143C30.0476 5.30811 29.9612 5.46191 29.9612 5.67285C29.9612 5.85449 30.0329 5.99658 30.1765 6.09912C30.32 6.20166 30.5134 6.25293 30.7566 6.25293Z" fill="white"/>
<path d="M35.5512 7.09229C35.1469 7.09229 34.7938 6.99121 34.4921 6.78906C34.1903 6.58691 33.956 6.30566 33.789 5.94531C33.6249 5.58203 33.5429 5.15869 33.5429 4.67529C33.5429 4.20068 33.6264 3.7832 33.7934 3.42285C33.9604 3.05957 34.1947 2.77686 34.4965 2.57471C34.7982 2.36963 35.1469 2.26709 35.5424 2.26709C35.8441 2.26709 36.1151 2.32861 36.3554 2.45166C36.5956 2.57471 36.7904 2.76367 36.9398 3.01855H36.9486V0.452148H38.0561V7H36.9662V6.29248H36.9574C36.8109 6.56201 36.6146 6.7627 36.3686 6.89453C36.1254 7.02637 35.8529 7.09229 35.5512 7.09229ZM35.8104 6.16504C36.1737 6.16504 36.4638 6.03027 36.6806 5.76074C36.9003 5.48828 37.0102 5.12646 37.0102 4.67529C37.0102 4.22412 36.9003 3.86377 36.6806 3.59424C36.4638 3.32178 36.1737 3.18555 35.8104 3.18555C35.4677 3.18555 35.1908 3.31445 34.9799 3.57227C34.7689 3.83008 34.6635 4.19775 34.6635 4.67529C34.6635 5.15576 34.7689 5.5249 34.9799 5.78271C35.1908 6.0376 35.4677 6.16504 35.8104 6.16504Z" fill="white"/>
<path d="M40.9654 8.89844C40.3531 8.89844 39.8668 8.7666 39.5064 8.50293C39.1461 8.23926 38.9351 7.88184 38.8736 7.43066H39.9591C40.0118 7.62988 40.1275 7.78076 40.3062 7.8833C40.4849 7.98877 40.7047 8.0415 40.9654 8.0415C41.3111 8.0415 41.5792 7.94775 41.7696 7.76025C41.963 7.57275 42.0596 7.30176 42.0596 6.94727V6.23975H42.0553C41.9058 6.51221 41.711 6.71289 41.4708 6.8418C41.2305 6.96777 40.9581 7.03076 40.6534 7.03076C40.2491 7.03076 39.8961 6.92969 39.5943 6.72754C39.2926 6.52539 39.0582 6.24707 38.8912 5.89258C38.7271 5.53516 38.6451 5.12354 38.6451 4.65771C38.6451 4.18896 38.7286 3.77441 38.8956 3.41406C39.0626 3.05371 39.297 2.77246 39.5987 2.57031C39.9005 2.36816 40.2491 2.26709 40.6446 2.26709C40.9464 2.26709 41.2188 2.33154 41.462 2.46045C41.7081 2.58643 41.9073 2.78271 42.0596 3.04932H42.064V2.35938H43.1583V6.88135C43.1583 7.35889 43.0631 7.74561 42.8726 8.0415C42.6822 8.34033 42.4215 8.55713 42.0904 8.69189C41.7594 8.82959 41.3844 8.89844 40.9654 8.89844ZM40.9127 6.1167C41.276 6.1167 41.566 5.9834 41.7828 5.7168C42.0025 5.44727 42.1124 5.08984 42.1124 4.64453C42.1124 4.19922 42.0025 3.84326 41.7828 3.57666C41.566 3.30713 41.276 3.17236 40.9127 3.17236C40.5699 3.17236 40.293 3.2998 40.0821 3.55469C39.8712 3.80957 39.7657 4.17285 39.7657 4.64453C39.7657 5.11914 39.8712 5.48389 40.0821 5.73877C40.293 5.99072 40.5699 6.1167 40.9127 6.1167Z" fill="white"/>
<path d="M46.0105 7.10547C45.5476 7.10547 45.1462 7.00146 44.8064 6.79346C44.4666 6.58545 44.2044 6.2998 44.0198 5.93652C43.8381 5.57031 43.7473 5.15283 43.7473 4.68408C43.7473 4.2124 43.8411 3.79492 44.0286 3.43164C44.219 3.06543 44.4812 2.77832 44.8152 2.57031C45.1492 2.35938 45.533 2.25391 45.9666 2.25391C46.4119 2.25391 46.8015 2.35645 47.1355 2.56152C47.4695 2.7666 47.7288 3.05078 47.9133 3.41406C48.0979 3.77441 48.1902 4.19189 48.1902 4.6665V4.96973H44.8328C44.8474 5.34766 44.9587 5.65234 45.1668 5.88379C45.3748 6.11523 45.6648 6.23096 46.0369 6.23096C46.3152 6.23096 46.5452 6.1709 46.7268 6.05078C46.9085 5.92773 47.0315 5.7666 47.096 5.56738H48.1331C48.0745 5.86914 47.9456 6.13574 47.7463 6.36719C47.5501 6.59863 47.3025 6.78027 47.0037 6.91211C46.7048 7.04102 46.3738 7.10547 46.0105 7.10547ZM44.8416 4.20508H47.1267C47.0916 3.87402 46.9714 3.61328 46.7664 3.42285C46.5642 3.22949 46.3035 3.13281 45.9841 3.13281C45.6619 3.13281 45.3997 3.22949 45.1975 3.42285C44.9983 3.61328 44.8796 3.87402 44.8416 4.20508Z" fill="white"/>
</svg>
