<svg width="8" height="7" viewBox="0 0 8 7" fill="none" xmlns="http://www.w3.org/2000/svg">
<path d="M2.82843 2.82843C2.76926 2.88759 2.70834 2.9448 2.64575 3L4 3C4 3.52529 3.89654 4.04543 3.69552 4.53073C3.4945 5.01604 3.19986 5.45699 2.82843 5.82843C2.45699 6.19986 2.01604 6.4945 1.53073 6.69552C1.04543 6.89654 0.525287 7 0 7V0.999999C0 0.447715 0.447715 0 1 0H4C4 0.525288 3.89654 1.04543 3.69552 1.53073C3.4945 2.01604 3.19986 2.45699 2.82843 2.82843Z" fill="white"/>
<path d="M8 1C8 0.447716 7.55228 0 7 0H4C4 0.525288 4.10346 1.04543 4.30448 1.53073C4.5055 2.01604 4.80014 2.45699 5.17157 2.82843C5.23073 2.88759 5.29166 2.9448 5.35425 3L4 3C4 3.52529 4.10346 4.04543 4.30448 4.53073C4.5055 5.01604 4.80014 5.45699 5.17157 5.82843C5.54301 6.19986 5.98396 6.4945 6.46927 6.69552C6.95457 6.89654 7.47471 7 8 7L8 1Z" fill="white"/>
</svg>
