<?xml version="1.0" encoding="UTF-8" standalone="no"?>
<svg
   width="82.759003"
   height="34.435001"
   fill="#6772e5"
   fill-rule="evenodd"
   version="1.1"
   id="svg4"
   sodipodi:docname="stripe.svg"
   inkscape:version="1.1.2 (0a00cf5339, 2022-02-04)"
   xmlns:inkscape="http://www.inkscape.org/namespaces/inkscape"
   xmlns:sodipodi="http://sodipodi.sourceforge.net/DTD/sodipodi-0.dtd"
   xmlns="http://www.w3.org/2000/svg"
   xmlns:svg="http://www.w3.org/2000/svg">
  <defs
     id="defs8" />
  <sodipodi:namedview
     id="namedview6"
     pagecolor="#ffffff"
     bordercolor="#666666"
     borderopacity="1.0"
     inkscape:pageshadow="2"
     inkscape:pageopacity="0.0"
     inkscape:pagecheckerboard="0"
     showgrid="false"
     fit-margin-top="0"
     fit-margin-left="0"
     fit-margin-right="0"
     fit-margin-bottom="0"
     inkscape:zoom="9.775"
     inkscape:cx="41.176471"
     inkscape:cy="16.828645"
     inkscape:window-width="1920"
     inkscape:window-height="1043"
     inkscape:window-x="1260"
     inkscape:window-y="0"
     inkscape:window-maximized="1"
     inkscape:current-layer="svg4" />
  <path
     d="m 82.759,17.79 c 0,-5.885 -2.85,-10.53 -8.3,-10.53 -5.47,0 -8.782,4.644 -8.782,10.483 0,6.92 3.908,10.414 9.517,10.414 2.736,0 4.805,-0.62 6.368,-1.494 v -4.598 c -1.563,0.782 -3.356,1.264 -5.632,1.264 -2.23,0 -4.207,-0.782 -4.46,-3.494 h 11.24 c 0,-0.3 0.046,-1.494 0.046,-2.046 z M 71.412,15.607 c 0,-2.598 1.586,-3.678 3.035,-3.678 1.402,0 2.897,1.08 2.897,3.678 z M 56.815,7.262 c -2.253,0 -3.7,1.057 -4.506,1.793 l -0.3,-1.425 h -5.067 v 26.805 l 5.747,-1.218 0.023,-6.506 c 0.828,0.598 2.046,1.448 4.07,1.448 4.115,0 7.862,-3.3 7.862,-10.598 -0.023,-6.667 -3.816,-10.3 -7.84,-10.3 z m -1.38,15.84 c -1.356,0 -2.16,-0.483 -2.713,-1.08 l -0.023,-8.53 c 0.598,-0.667 1.425,-1.126 2.736,-1.126 2.092,0 3.54,2.345 3.54,5.356 0,3.08 -1.425,5.38 -3.54,5.38 z m -16.4,-17.196 5.77,-1.24 V 0 l -5.77,1.218 z m 0,1.747 h 5.77 v 20.115 h -5.77 z m -6.185,1.7 -0.368,-1.7 H 27.516 V 27.77 h 5.747 V 14.136 c 1.356,-1.77 3.655,-1.448 4.368,-1.195 V 7.654 C 36.895,7.378 34.206,6.872 32.849,9.354 Z M 21.356,2.653 15.747,3.85 15.724,22.264 c 0,3.402 2.552,5.908 5.954,5.908 1.885,0 3.264,-0.345 4.023,-0.76 v -4.667 c -0.736,0.3 -4.368,1.356 -4.368,-2.046 V 12.55 h 4.368 V 7.653 h -4.37 z M 5.816,13.481 c 0,-0.897 0.736,-1.24 1.954,-1.24 a 12.85,12.85 0 0 1 5.7,1.47 V 8.32 C 11.562,7.56 9.677,7.263 7.77,7.263 3.103,7.263 0,9.7 0,13.769 c 0,6.345 8.736,5.333 8.736,8.07 0,1.057 -0.92,1.402 -2.207,1.402 -1.908,0 -4.345,-0.782 -6.276,-1.84 v 5.47 c 2.138,0.92 4.3,1.3 6.276,1.3 4.782,0 8.07,-2.368 8.07,-6.483 -0.023,-6.85 -8.782,-5.632 -8.782,-8.207 z"
     id="path2" />
</svg>
